<?xml version="1.0" standalone="no"?>
<!DOCTYPE svg PUBLIC "-//W3C//DTD SVG 20010904//EN"
 "http://www.w3.org/TR/2001/REC-SVG-20010904/DTD/svg10.dtd">
<svg version="1.0" xmlns="http://www.w3.org/2000/svg" fill='#EFC139'
 width="512.000000pt" height="512.000000pt" viewBox="0 0 512.000000 512.000000"
 preserveAspectRatio="xMidYMid meet">

<g transform="translate(0.000000,512.000000) scale(0.100000,-0.100000)"
 stroke="none">
<path d="M1295 4455 c-1127 -368 -1243 -407 -1267 -435 -36 -40 -36 -80 0
-120 24 -27 82 -49 527 -193 l500 -163 5 -724 5 -725 27 -47 c110 -187 470
-313 1053 -369 168 -17 662 -17 830 0 583 56 943 182 1053 369 l27 47 5 724 5
725 328 107 327 106 0 -956 0 -956 -45 -24 c-119 -63 -180 -211 -141 -343 19
-66 71 -138 123 -169 21 -12 40 -24 42 -26 2 -2 -38 -211 -90 -466 -85 -420
-92 -465 -80 -494 24 -59 53 -64 307 -61 l226 3 29 33 c16 18 29 43 29 56 0
13 -40 223 -90 466 -49 243 -90 447 -90 454 0 6 17 20 37 31 51 28 110 106
129 173 39 132 -22 280 -141 343 l-45 24 2 989 3 989 70 23 c81 27 125 68 125
114 0 18 -11 41 -27 60 -26 28 -141 67 -1273 435 -685 223 -1254 405 -1265
404 -11 0 -578 -182 -1260 -404z m2332 -147 c579 -188 1053 -345 1053 -348 0
-7 -2099 -690 -2120 -690 -21 0 -2120 683 -2120 690 0 7 2089 688 2115 689 11
1 493 -153 1072 -341z m-1702 -1047 c341 -110 627 -201 635 -201 8 0 303 94
655 208 l640 208 3 -666 c2 -635 1 -666 -16 -690 -109 -145 -818 -275 -1403
-256 -546 18 -992 114 -1144 247 l-35 31 0 669 0 669 23 -9 c12 -5 301 -99
642 -210z m2965 -1636 c35 -36 34 -95 -3 -132 -60 -61 -162 -19 -162 66 0 89
101 130 165 66z m-31 -967 c19 -95 36 -179 39 -185 3 -10 -17 -13 -78 -13 -61
0 -81 3 -78 13 3 6 20 90 39 185 18 94 36 172 39 172 3 0 21 -78 39 -172z"/>
<path d="M3560 2414 c-109 -52 -306 -99 -535 -128 -102 -13 -111 -16 -137 -45
-31 -35 -35 -68 -13 -110 26 -51 60 -57 211 -37 244 31 452 83 556 138 88 47
109 111 55 173 -33 37 -72 40 -137 9z"/>
<path d="M2524 2250 c-32 -13 -64 -59 -64 -91 0 -40 46 -88 91 -95 31 -5 42
-1 70 24 28 25 34 37 34 72 0 35 -6 47 -33 71 -33 29 -60 35 -98 19z"/>
</g>
</svg>
