<svg xmlns="http://www.w3.org/2000/svg" xmlns:xlink="http://www.w3.org/1999/xlink" fill='#EFC139' id="Layer_1" x="0px" y="0px" viewBox="0 0 384.1 384" style="enable-background:new 0 0 384.1 384;" xml:space="preserve"><path d="M378,162.6c0,28.8,0,57.6,0,86.5c-0.3,0-0.7,0-1,0.1c-34.5,17.2-68.9,34.4-103.3,51.7c-1,0.5-1.8,2.1-1.9,3.3 c-0.9,9.3-6.1,15.3-15.3,17.3c-1,0.2-2.4,1.5-2.6,2.5c-1.8,8.6-6.7,13.5-15.3,15.2c-0.9,0.2-2.1,1.2-2.3,2 c-1.7,9.8-7.8,14.8-16,15.9c-2.6,4.7-4.3,9.1-7.2,12.5c-2.1,2.4-5.7,3.5-8.6,5.3c-2.6,0-5.2,0-7.9,0c-3.8-2.3-7.8-4.4-11.4-7 c-1.9-1.4-3-1.8-5.3-0.7c-10.9,5.1-23.3-1.3-25.5-13.1c-0.4-2.1-1.2-3-3.3-3.3c-5.6-1-9.9-4-12.5-9.1c-1.2-2.4-1-5.8-2.7-7.5 c-1.8-1.8-5.3-1.7-7.8-3c-6.1-3.1-8.9-8.6-9.7-15.2c-9.9-1.5-15.9-6.8-17.5-16.6c-0.1-0.6-0.5-1.4-1-1.7c-5.5-3.4-11.1-6.7-16.1-9.7 c-1.5,1.8-2.6,4.1-3.8,4.2c-4.5,0.1-9.2,0.2-13.4-1.1c-17.1-5.3-34.1-11.3-51.1-16.8c-2.6-0.8-3.4-2-3.4-4.7 c0.1-38.3,0.1-76.7,0.1-115c0-1.2,0.1-2.3,0.2-3.7c10.1-0.1,20.1-1.8,28.7,5.4c2.5,2.1,6,3.1,8.5,5.2c7.4,6.1,15.3,7.2,24,3.3 c1.2-0.5,2.3-1.2,3.5-1.9c-0.8-1.2-1.3-2.7-2.3-3.6c-6.5-5.4-11-12.1-13.5-20.2c-2.6-8.3-2.2-16.8-1.8-25.2 c0.8-16.8,9-29.2,24.4-36.1c5.6-2.5,12-3.2,18.3-4.9c-1.5-3.5-3.3-7.6-4.9-11.8c-0.4-1-0.3-2.7,0.3-3.4c9.8-10,19.8-20,29.8-30 c5.6,3.6,10.9,7.2,16.3,10.5c1.1,0.7,3.1,0.7,4.4,0.3c5.8-2.2,11.4-4.8,17.1-7c2.1-0.8,3-1.7,3.4-3.9c1.2-6.2,2.6-12.3,3.9-18.3 c15.2,0,30,0,45,0c1.3,6.3,2.5,12.5,4,18.6c0.3,1.3,1.7,2.8,2.9,3.3c5.7,2.6,11.6,4.8,17.4,7.4c1.7,0.8,2.9,0.8,4.5-0.2 c5.3-3.6,10.7-7,16.4-10.7c10.1,10.1,20.1,20.2,30,30.3c0.6,0.6,0.5,2.4,0.1,3.4c-1.6,4.1-3.4,8.2-5.3,12.5 c18.8,0.4,31.7,9,39.5,25.3c4.4,9.1,4,19,3.7,28.7c-0.4,12.7-5.7,23.2-15.4,31.3c-1,0.8-1.5,2.2-2.2,3.3c1.1,0.7,2.1,1.7,3.3,2 c9.2,2.7,18.5,5.3,27.7,7.8c0.9,0.2,2.1-0.2,2.9-0.6c5.1-2.6,10.1-5.3,15.2-7.9c1.2-0.6,2.6-1.2,4-1.2 C370.1,162.4,374,162.6,378,162.6z M366.1,175.2c-1.8,0.9-3,1.4-4.1,2c-33.7,17.7-67.4,35.4-100.9,53.3c-4.3,2.3-8.6,3.3-13.3,2.6 c-2-0.3-4-0.8-5.9-1.3c-10.2-2.9-20.3-5.8-30.5-8.8c-7.1-2.1-14.1-1.9-20.8,1.4c-10.5,5.2-21.1,10.5-31.6,15.8 c-5.1,2.6-6.8,8-4.1,12.6c2.4,4.2,7.2,5.1,12.1,2.2c6.4-3.7,12.7-7.6,19-11.4c11.4-6.8,21.5-5.9,31.4,3c15.7,14.1,31.4,28.1,47,42.3 c1.9,1.7,3.2,1.9,5.5,0.8c31-15.6,62-31.2,93.1-46.6c2.6-1.3,3.3-2.8,3.3-5.5c-0.1-19.4-0.1-38.8-0.1-58.2 C366.1,178.2,366.1,177,366.1,175.2z M183.3,321.7c6.5,0.9,10.9,4.2,15.1,9c4.6,5.2,10.5,9.2,16,13.6c0.8,0.6,2,0.7,3,0.9 c2.8,0.4,4.9-0.6,6.3-3c1.4-2.4,1-4.9-0.8-6.9c-1-1.1-2.2-2.1-3.4-3.1c-9.3-7.8-18.6-15.5-28.1-23.5c2.6-3.1,5-6,7.5-9 c2.8,2.3,5.3,4.4,7.9,6.5c8,6.6,15.9,13.3,23.9,19.8c3.4,2.7,7.9,2.2,10.2-0.7c2.3-3,1.6-6.3-1.9-9.3c-3-2.6-6-5-9.1-7.5 c-6.9-5.8-13.8-11.6-20.9-17.5c2.7-3.2,5.1-6.1,7.5-9c7.7,6.4,15.1,12.6,22.5,18.8c3.2,2.7,6.3,5.5,9.7,7.9 c4.5,3.2,10.9,0.9,10.9-4.2c0-2.3-1.7-5.2-3.5-6.9c-15.3-14.1-30.9-28-46.4-41.9c-5.9-5.4-10.9-5.9-17.8-1.8 c-6.6,4-13.3,8-19.9,11.9c-6.1,3.6-12.5,4-18.8,0.9c-7.2-3.5-10.8-9.4-11.2-17.3c-0.4-8.2,2.8-14.8,10.1-18.7 c8.8-4.8,17.8-9,26.7-13.5c0.9-0.5,1.7-1,2.9-1.7c-10.9-4.2-21.8-7-32.9-5.1c-15,2.5-29.8,6.1-44.7,9.4c-1,0.2-2.3,1.3-2.6,2.3 c-5,17.2-9.9,34.5-14.8,51.8c-0.2,0.8,0.1,2.3,0.7,2.6c5.5,3.5,11.1,6.8,17.1,10.4c4.5-4.7,8.5-9.7,13.3-13.8 c9.8-8.3,24.9-3.8,28.6,8.4c1.1,3.6,2.4,5.2,6.1,6.2c7.9,2.2,11.8,8.3,12.8,16.4C175.8,305.4,181.8,311.2,183.3,321.7z M136.3,199.8 c0.6,0,0.9,0,1.3,0c0.8-0.1,1.6-0.3,2.5-0.4c11.3-2.1,22.4-2.1,33.6,1c13.7,3.8,27.5,7.5,41.2,11.3c10.6,3,21.3,6,31.9,9 c1.4,0.4,2.8,0.5,4.2,0.6c2.2,0.2,3.2-0.7,3.2-3c-0.1-6.4,0.1-12.9-0.1-19.3c-0.3-9.5-5.2-15.5-14.5-17.9 c-9.9-2.6-19.8-5.1-29.7-7.4c-2.3-0.5-3.1-1.5-3-3.8c0.2-4.2,0.2-8.3,0-12.5c-0.1-2.4,0.8-3.6,2.8-4.8c8.1-4.7,13.2-11.7,14.5-21 c0.7-5.4,0.9-11,0.2-16.4c-0.7-5.1-1.9-10.5-4.4-14.8c-6.4-10.9-16.4-16.2-29.1-14.3c-11.8,1.8-20.2,8.6-23.4,20.2 c-1.6,5.8-1.4,12.2-1.6,18.4c-0.5,12.4,4.7,21.8,15.3,28.3c1.1,0.7,2,2.5,2.1,3.9c0.3,4-0.1,8.1,0.2,12.1c0.2,3.2-1.1,4.3-4,4.9 c-9.8,2.3-19.6,4.7-29.4,7.3C140.9,183.6,135.7,190.8,136.3,199.8z M330.7,180.3c-9.7-2.5-18.3-4.7-26.9-6.8 c-1.9-0.5-2.5-1.2-2.5-3.1c0.1-4.4,0.1-8.8,0-13.2c-0.1-2.2,0.6-3.4,2.5-4.5c7.8-4.5,13.2-11.2,14.5-20.2c1.3-8.7,1.5-17.6-1.1-26.2 c-3.6-11.6-15.4-20.6-27.2-20.6c-13.2-0.1-25.1,8.2-28.3,20.8c-1.5,5.9-1.3,12.2-1.6,18.4c-0.4,12.4,4.8,21.7,15.4,28.2 c1.1,0.7,2.1,2.5,2.1,3.9c0.3,4.3,0,8.6,0.1,12.8c0.1,2.3-0.5,3.4-2.9,3.9c-5.6,1.2-11.2,2.8-17.3,4.3c4.5,5.2,7.6,10.7,8,17.2 c0.4,6.2,0.1,12.5,0.1,19.4C287.5,203,308.6,191.9,330.7,180.3z M132.7,178c-6-1.5-11.3-2.9-16.6-4.1c-2.7-0.6-4.1-1.6-3.8-4.7 c0.3-3.9,0.2-7.9,0-11.8c-0.1-2.3,0.7-3.6,2.7-4.8c8.2-4.7,13.3-11.9,14.6-21.3c0.7-4.8,0.9-9.8,0.2-14.6 c-0.7-5.3-1.9-10.8-4.1-15.6c-5.2-10.9-16.6-16.4-29.4-15.1c-10.4,1-20.9,9.4-23.5,20.2c-1.5,5.9-1.4,12.2-1.6,18.3 c-0.5,12.5,4.7,22,15.5,28.5c1,0.6,1.9,2.1,2,3.3c0.2,4.7,0.2,9.5,0,14.3c0,1-1.2,2.4-2.2,2.7c-3.3,1.1-6.8,1.9-10.9,2.9 c7.5,4.4,14.4,8.4,21.2,12.4c3.2,1.9,7.7,3.3,9.2,6.2c1.6,2.9,0.3,7.4,0.3,11.2c0,0.2,0.2,0.4,0.4,0.7c5.2-1.1,10.4-2.2,15.6-3.5 c0.8-0.2,1.9-1.5,1.9-2.3C124,192.5,126.4,184.8,132.7,178z M153.8,120.9c0-2.5-0.2-5,0-7.5c1.3-17.2,9.7-29.8,25.7-36.4 c15.4-6.4,29.8-3.5,42.6,7.3c17,14.3,17,42.5,11,58.3c-2.6,6.8-7.1,12.4-12.8,16.8c-1.7,1.3-3.1,3.4-0.4,4.3 c7.2,2.3,14.7,3.9,22.1,5.6c0.7,0.2,1.6-0.2,2.4-0.4c6.2-1.5,12.5-3.1,18.7-4.7c1-0.3,2.6-1.1,2.6-1.7c0-1.1-0.8-2.3-1.6-3.2 c-3.1-3.6-7-6.6-9.4-10.6c-9.1-15.6-8.2-32.2-3.5-49c0.4-1.5,0.9-3.5,0.3-4.6c-12.7-21.5-31.8-33.1-56.6-33 c-24.2,0.1-43,11.4-55.8,32.2c-1.3,2.1-1.2,3.7-0.4,5.9c4.9,14.8,5.3,29.6-0.8,44.2c-2.5,6-6.7,10.9-11.9,14.9 c-2.3,1.8-2.4,3.9-0.2,4.5c7.1,1.9,14.3,3.6,21.4,5.4c0.7,0.2,1.6-0.1,2.4-0.3c6.5-1.6,12.9-3.2,19.4-4.9c0.9-0.2,2.3-1,2.3-1.5 c0.1-1-0.6-2.2-1.3-2.9c-2.3-2.4-5-4.5-7.1-7C155.3,143.5,153.1,132.6,153.8,120.9z M130.2,86c15.5-22.6,36.9-35.5,64.8-35.5 c27.8,0,49.3,12.8,64.8,35.2c4.2-2.7,8.2-5.1,12-7.7c0.8-0.6,1.6-1.4,2-2.3c1.8-4,3.6-8,5.2-12.1c0.3-0.9,0.2-2.5-0.4-3.1 c-5.7-5.9-11.6-11.6-17.6-17.6c-4.9,3.2-9.6,6.4-14.5,9.3c-1,0.6-3,0.8-4,0.2c-8.7-5.2-18-9.2-27.9-11.5c-1.9-0.4-2.8-1.3-3.1-3.2 c-0.8-4.6-2-9.1-2.8-13.6c-0.4-2.3-1.2-3.2-3.7-3.2c-6.7,0.2-13.3,0.1-20,0c-2.2,0-3.2,0.7-3.6,2.9c-0.8,4.4-2,8.8-2.7,13.3 c-0.4,2.6-1.6,3.5-4,4.1c-9.5,2.1-18.3,5.9-26.5,11c-1.9,1.2-3.2,1.2-5.1-0.1c-4.6-3.2-9.3-6.1-14.4-9.4c-3.4,3.5-6.6,6.9-9.8,10.2 c-2.8,2.9-7.3,5.5-7.9,8.8c-0.6,3.5,2.4,7.7,4,11.5c0.7,1.6,1.3,3.6,2.6,4.5C121.6,80.6,125.9,83.1,130.2,86z M49.3,272.8 c7.2-28.8,14.3-57.2,21.4-85.7c-13.9-8.1-27.4-16-41-23.8c-1.5-0.8-3.5-0.7-5.7-1.1c0,2,0,3.3,0,4.6c0,14,0,28.1,0,42.1 c0,17.4,0,34.7,0,52.1c0,1.8-0.2,3.4,2.2,4.1C33.8,267.5,41.3,270.1,49.3,272.8z M72.5,280.6c2.7-9.4,5.2-18.3,7.8-27.2 c4.6-16.1,9.3-32.2,13.8-48.3c0.4-1.3,0.3-3.8-0.5-4.3c-3.8-2.6-7.9-4.8-12.3-7.3c-7,27.9-13.9,55.4-20.8,83.2 C64.6,277.9,68.4,279.2,72.5,280.6z M183.3,333.1c-1.9,0.7-3.3,0.8-4.1,1.5c-4.3,4.1-8.6,8.2-12.6,12.6c-2,2.3-1.2,6,1.1,8.1 c2.3,2.1,5.7,2.6,8.1,0.4c4.2-3.7,8.2-7.6,11.7-11.9c1.2-1.4,1.3-4.7,0.5-6.5C187.3,335.5,184.8,334.4,183.3,333.1z M118.4,304.4 c1.8-0.6,3.1-0.7,3.8-1.4c4.4-4.2,8.8-8.3,12.8-12.9c2-2.4,1.2-5.5-1-7.8c-2.2-2.2-5.7-2.8-8.1-0.6c-4.3,3.8-8.4,7.8-12,12.1 c-1.2,1.4-1.1,4.7-0.3,6.5C114.4,302.2,116.9,303.3,118.4,304.4z M172.2,322.1c-1.6-1.9-2.8-4.7-4.7-5.3c-2.1-0.7-5.4-0.2-7.1,1.2 c-3.7,2.8-6.8,6.3-10,9.7c-3.2,3.3-3.3,7.1-0.5,9.8c2.7,2.7,6.7,2.5,9.9-0.5c3.2-3,6.3-6.1,9.3-9.4 C170.2,326.2,170.9,324.3,172.2,322.1z M154.4,304.1c-1.5-1.8-2.7-4-4.5-5.1c-2.5-1.6-5.4-0.9-7.5,1.2c-3.5,3.3-6.9,6.6-10.1,10.1 c-2.9,3.1-2.8,7,0,9.6c2.6,2.5,6.3,2.5,9.3-0.3c3.5-3.2,6.8-6.6,10-10.1C152.7,308.2,153.2,306.4,154.4,304.1z M199.7,348 c-2.9,3.4-5.5,6.5-8.3,9.7c3.1,3,6.1,6.6,11,4.8c1.7-0.7,3.7-2.9,4-4.7C207.5,352.4,202.4,351,199.7,348z"></path></svg>