<?xml version="1.0" standalone="no"?>
<!DOCTYPE svg PUBLIC "-//W3C//DTD SVG 20010904//EN"
 "http://www.w3.org/TR/2001/REC-SVG-20010904/DTD/svg10.dtd">
<svg version="1.0" xmlns="http://www.w3.org/2000/svg" fill='#EFC139'
 width="612.000000pt" height="451.000000pt" viewBox="0 0 612.000000 451.000000"
 preserveAspectRatio="xMidYMid meet">

<g transform="translate(0.000000,451.000000) scale(0.100000,-0.100000)" stroke="none">
<path d="M2925 3780 c-112 -15 -227 -74 -279 -143 -41 -55 -78 -138 -73 -164
3 -17 -3 -32 -19 -48 -25 -25 -32 -59 -14 -70 17 -10 11 -30 -12 -40 -32 -15
-45 -61 -22 -86 14 -16 15 -19 2 -19 -37 0 -69 -71 -44 -99 15 -16 14 -19 -8
-29 -27 -12 -45 -67 -27 -85 15 -15 14 -27 -4 -27 -30 0 -50 -92 -22 -103 7
-4 3 -8 -11 -13 -39 -11 -41 -79 -3 -92 7 -2 15 5 18 17 7 27 63 31 63 4 0
-31 -14 -40 -69 -45 -29 -3 -57 -11 -62 -19 -13 -20 -11 -53 3 -67 10 -10 16
-8 28 9 11 14 25 20 41 17 23 -3 25 -6 17 -34 -8 -31 -10 -32 -58 -31 -28 0
-55 -4 -61 -10 -6 -6 -12 -53 -13 -105 -2 -182 56 -268 250 -364 74 -37 113
-62 110 -70 -23 -59 -79 -287 -79 -320 0 -52 29 -103 70 -123 31 -15 33 -19
33 -73 0 -57 -1 -58 -35 -72 l-35 -15 0 -360 c0 -358 0 -360 21 -372 25 -13
395 -9 417 4 9 6 12 91 12 368 l0 360 -35 15 c-47 19 -49 61 -5 86 35 20 78
86 191 291 59 106 87 147 100 147 36 0 126 41 166 75 45 39 88 116 79 142 -4
10 1 21 13 29 25 18 36 66 21 93 -6 13 -7 21 -1 21 33 0 58 88 29 106 -7 5 -4
10 10 15 30 11 47 56 34 90 -7 21 -6 28 9 37 24 15 34 55 20 80 -9 17 -8 22 9
27 20 7 37 62 26 90 -3 9 4 25 15 36 17 17 20 30 16 65 -3 32 -1 44 8 44 19 0
36 56 25 85 -6 17 -5 25 5 29 8 3 19 24 26 48 15 58 -2 152 -44 238 -47 98
-184 230 -307 297 -195 106 -389 154 -545 133z m81 -41 c-14 -11 -40 -41 -57
-65 -48 -70 -121 -85 -86 -18 29 56 95 101 151 103 16 1 14 -2 -8 -20z m-160
-34 c-19 -24 -37 -53 -41 -64 -6 -20 -33 -36 -44 -26 -13 13 44 97 78 115 20
11 37 19 38 20 2 0 -13 -20 -31 -45z m418 10 l31 -13 -47 -1 c-61 -1 -83 -10
-143 -60 -39 -32 -58 -41 -88 -41 -48 0 -57 20 -26 64 40 59 89 78 183 70 33
-3 73 -11 90 -19z m-534 -57 c-16 -30 -41 -58 -52 -58 -15 0 -8 15 23 53 34
41 48 43 29 5z m231 -144 c114 -21 206 -48 322 -96 103 -43 125 -64 106 -99
-14 -27 -36 -23 -164 31 -131 55 -263 89 -380 99 -53 4 -98 10 -100 13 -3 3 0
19 6 36 11 31 13 32 69 32 32 0 95 -7 141 -16z m-271 -10 c0 -30 -20 -54 -46
-54 -23 0 -25 3 -19 27 3 15 12 31 18 35 21 13 47 9 47 -8z m280 -124 c91 -20
244 -72 325 -111 44 -21 50 -28 50 -54 0 -43 -33 -44 -131 -2 -163 70 -346
117 -453 117 -26 0 -50 3 -53 6 -3 3 -1 21 5 41 l11 36 80 -7 c45 -4 119 -15
166 -26z m-321 -12 c-5 -18 -9 -34 -9 -35 0 -2 -14 -3 -31 -3 -27 0 -30 3 -24
23 8 27 32 47 56 47 15 0 16 -5 8 -32z m216 -94 c124 -21 218 -48 333 -96 116
-48 124 -54 120 -87 -4 -39 -40 -38 -135 3 -134 57 -265 95 -388 111 -64 8
-118 15 -121 15 -7 0 -5 17 6 44 8 22 16 26 52 26 24 0 84 -7 133 -16z m767
-30 c108 -59 151 -100 143 -134 -4 -14 -8 -26 -9 -28 -2 -1 -27 14 -57 34 -30
20 -76 47 -104 61 -65 33 -85 51 -85 79 0 19 6 26 27 33 2 1 40 -20 85 -45z
m-1016 20 c-3 -9 -6 -22 -6 -30 0 -9 -11 -14 -30 -14 -32 0 -36 9 -20 41 13
24 65 27 56 3z m-40 -139 c-5 -20 -13 -25 -36 -25 -34 0 -33 0 -21 34 6 14 19
26 33 28 27 4 32 -4 24 -37z m250 30 c170 -30 433 -126 455 -166 12 -23 -4
-59 -26 -59 -8 0 -63 20 -123 45 -137 56 -247 87 -387 110 -60 10 -111 19
-113 20 -1 1 3 16 9 33 10 29 15 32 54 32 23 0 82 -7 131 -15z m766 -27 c125
-65 163 -103 147 -146 l-9 -23 -32 24 c-18 14 -68 44 -111 67 -87 47 -111 73
-96 102 5 10 12 18 15 18 3 0 42 -19 86 -42z m-1050 -114 c-7 -24 -14 -30 -42
-32 -27 -3 -32 -1 -26 13 3 9 6 21 6 26 0 7 60 29 67 24 1 0 -1 -14 -5 -31z
m243 16 c127 -22 292 -73 395 -123 59 -29 65 -35 65 -62 0 -45 -27 -43 -168
13 -136 55 -248 85 -377 103 -116 15 -109 12 -96 53 13 44 18 44 181 16z m777
-22 c91 -47 148 -96 148 -126 0 -33 -16 -34 -67 -4 -26 16 -78 46 -115 66 -68
37 -89 65 -68 91 7 8 15 15 17 15 3 0 41 -19 85 -42z m-1057 -117 c-6 -27 -11
-31 -40 -31 -33 0 -34 1 -24 29 8 21 18 31 37 33 35 4 35 5 27 -31z m285 2
c223 -54 413 -131 418 -169 5 -34 -23 -50 -61 -35 -121 48 -371 124 -470 143
l-118 23 7 30 c3 16 9 34 11 39 7 11 87 0 213 -31z m748 -12 c97 -50 145 -94
136 -124 -9 -30 -11 -31 -26 -20 -7 6 -53 32 -103 58 -103 55 -125 71 -125 95
0 41 22 39 118 -9z m-800 -106 c100 -23 309 -92 372 -123 48 -24 55 -31 55
-57 0 -43 -22 -42 -145 4 -140 52 -295 97 -404 116 -49 8 -91 17 -93 19 -2 2
2 19 10 38 l15 35 62 -8 c34 -5 92 -16 128 -24z m755 -6 c94 -47 147 -92 147
-126 0 -13 -4 -23 -8 -23 -5 0 -61 27 -125 60 -117 61 -142 85 -117 115 7 8
14 15 16 15 3 0 41 -18 87 -41z m-820 -109 c194 -44 449 -136 461 -167 11 -27
-4 -53 -29 -53 -13 0 -61 14 -107 31 -134 50 -289 96 -384 114 -49 9 -99 18
-111 21 -19 4 -20 7 -10 39 9 32 14 35 49 35 21 0 80 -9 131 -20z m801 -24
c106 -50 142 -83 132 -120 l-6 -25 -118 59 c-129 64 -147 78 -137 110 9 29 26
26 129 -24z m-41 -117 c102 -51 146 -90 139 -125 -2 -14 -8 -24 -12 -22 -5 2
-60 30 -124 63 -115 59 -141 83 -121 114 11 18 32 13 118 -30z m-1106 -86 c-2
-21 -4 -6 -4 32 0 39 2 55 4 38 2 -18 2 -50 0 -70z m65 0 c3 -54 8 -107 12
-118 3 -11 -2 -2 -13 20 -21 42 -38 153 -27 180 14 37 24 8 28 -82z m78 -9 c7
-112 24 -146 109 -226 72 -68 66 -68 -21 0 -98 76 -132 136 -132 237 0 64 8
89 27 82 7 -2 14 -38 17 -93z m100 57 c5 -11 10 -48 10 -83 0 -114 72 -214
198 -276 60 -30 71 -50 15 -27 -93 39 -233 158 -259 222 -14 33 -19 164 -7
176 12 13 32 7 43 -12z m138 -31 c7 -12 17 -44 22 -72 15 -77 61 -141 146
-200 40 -28 71 -55 68 -60 -29 -47 -242 89 -287 184 -17 35 -24 148 -10 161
13 14 49 6 61 -13z m684 -51 c110 -48 154 -85 144 -122 l-6 -26 -122 59 c-126
60 -153 85 -128 115 7 8 14 15 16 15 2 0 45 -18 96 -41z m-343 -555 c63 -52
62 -147 0 -219 -61 -69 -153 -54 -185 31 -51 133 86 272 185 188z"/>
<path d="M2950 1833 c-103 -52 -86 -233 22 -233 71 0 132 94 110 169 -21 69
-73 94 -132 64z"/>
</g>
</svg>
