<?xml version="1.0" standalone="no"?>
<!DOCTYPE svg PUBLIC "-//W3C//DTD SVG 20010904//EN"
 "http://www.w3.org/TR/2001/REC-SVG-20010904/DTD/svg10.dtd">
<svg version="1.0" xmlns="http://www.w3.org/2000/svg" fill='#EFC139'
 width="860.000000pt" height="830.000000pt" viewBox="0 0 860.000000 830.000000"
 preserveAspectRatio="xMidYMid meet">

<g transform="translate(0.000000,830.000000) scale(0.100000,-0.100000)"
fill="#000000" stroke="none">
<path d="M4385 7888 c-7 -21 -192 -848 -380 -1698 -368 -1663 -427 -1927 -525
-2359 -55 -244 -102 -446 -104 -449 -3 -2 -62 31 -133 74 -447 271 -852 354
-1190 242 -376 -124 -613 -487 -613 -940 0 -276 79 -467 267 -649 293 -283
718 -386 1138 -277 240 63 517 222 723 414 l63 59 64 305 c81 391 184 864 444
2055 115 528 226 1038 247 1133 28 129 41 172 51 168 34 -14 1883 -1333 1883
-1344 0 -37 -578 -2613 -590 -2625 -4 -4 -49 19 -101 53 -194 126 -449 235
-653 279 -629 137 -1125 -225 -1175 -859 -10 -122 2 -301 25 -379 50 -174 199
-368 370 -483 433 -289 969 -275 1454 39 102 66 239 175 297 235 l41 43 576
2495 c317 1372 579 2504 581 2515 6 22 -5 30 -685 526 -761 553 -1539 1104
-1841 1302 -175 115 -228 143 -234 125z m1187 -1720 c511 -369 932 -678 935
-686 6 -15 -65 -352 -76 -365 -6 -6 -1850 1299 -1888 1337 -19 17 64 399 85
391 7 -3 432 -307 944 -677z"/>
</g>
</svg>
