<svg xmlns="http://www.w3.org/2000/svg" xmlns:xlink="http://www.w3.org/1999/xlink" fill='#EFC139' id="Layer_1" x="0px" y="0px" viewBox="0 0 384.1 384" style="enable-background:new 0 0 384.1 384;" xml:space="preserve"><path d="M180.4,384c-7.4-1-14.9-1.6-22.2-3c-60.7-11.7-106-44.8-135.7-98.9C5.8,251.6-1.8,218.6,0.4,184C4.8,111.9,39,58,101.7,22.6 c23.4-13.2,49-20.2,75.8-22c1-0.1,1.9-0.4,2.9-0.6c7.5,0,15,0,22.5,0c1.1,0.2,2.2,0.6,3.3,0.6c19.5,1.4,38.5,5.4,56.5,13.1 C327.3,41.6,366.8,90,380.3,159.3c1.4,7.1,2,14.3,3,21.4c0,7.5,0,15,0,22.5c-0.2,1.1-0.6,2.1-0.6,3.2c-1.9,26.8-8.9,52.2-21.9,75.6 c-29.8,54.1-75.1,87.2-135.7,98.9c-7.3,1.4-14.8,2-22.2,3C195.4,384,187.9,384,180.4,384z M191.7,371.2 c98.7-0.1,179.1-80.8,178.8-179.5c-0.2-98.8-80.4-179-179-178.9c-98.8,0.1-179,80.7-178.8,179.5C13.1,291.1,93.2,371.3,191.7,371.2z "></path><path d="M219.9,248.2c1-23.3,1.7-40.2,2.5-57c0.1-2.3-0.4-3.8-2.5-5.2c-8.9-5.8-13.4-14.3-14.8-24.8c-2.3-16.6,1.8-32.1,7.7-47.1 c4.6-11.7,14.1-17.7,26.6-17.8c12.3-0.1,21.8,5.6,26.6,17.1c5.4,12.7,8.9,25.9,8.7,39.9c-0.3,13.8-4,25.9-16.5,33.7 c-0.9,0.6-1.4,2.5-1.3,3.8c0.8,20.3,1.7,40.7,2.6,61c0.6,13.4,1.4,26.7,1.7,40.1c0.3,11.1-6.9,19.4-18,21.5 c-9.8,1.8-20.4-3.9-23.7-13.4c-1.3-3.6-1.4-7.8-1.3-11.8C218.7,272.6,219.5,257.2,219.9,248.2z M246,238.1 C246,238.1,246,238.1,246,238.1c-0.8-17.6-1.6-35.2-2.4-52.8c-0.2-3.6,1.1-6.3,4.5-7.8c1.9-0.9,3.8-1.9,5.5-3.2 c6.8-5.1,8-12.6,8.3-20.4c0.5-12.4-3.1-24-7.4-35.3c-2.5-6.5-8.1-9.8-15.1-9.7c-6.8,0.1-12.3,3.3-14.7,9.7 c-4.3,11.3-7.9,22.9-7.4,35.3c0.4,10.5,3.4,19.4,14.1,23.8c3.9,1.6,4.4,4.9,4.2,8.7c-1.6,34.7-3.2,69.4-4.7,104.1 c-0.3,6.4,3,10.1,8.8,10.1c5.7,0,9.1-3.7,8.8-10.1C247.7,273,246.8,255.6,246,238.1z"></path><path d="M149.8,235.3c-0.9-17.7-1.7-35.4-2.7-53.2c-0.2-3.6,0.7-6.5,3.4-9.1c4.7-4.5,9.3-9.1,13.7-13.8c1.1-1.2,2-3.2,2-4.8 c0.1-16.7,0-33.5,0.2-50.2c0-2.2,0.8-4.8,2.2-6.4c3.1-3.4,8.7-1.6,10,3c0.4,1.3,0.4,2.7,0.4,4.1c0,17.5,0,35,0.1,52.5 c0,3.6-1,6.5-3.7,9c-4.6,4.4-9.1,8.9-13.5,13.5c-1,1-1.8,2.8-1.7,4.2c1.3,29.3,2.9,58.7,4.2,88c0.4,7.7,1.2,15.5,0.4,23.2 c-1.2,11.3-11.1,18.9-22.2,18.3c-10.8-0.6-19.7-9.3-20.2-20.4c-0.3-6.2,0.3-12.5,0.6-18.7c1.5-29.8,3-59.6,4.4-89.5 c0.1-1.8-0.8-4.1-2.1-5.5c-4.4-4.8-9.3-9.1-13.6-13.9c-1.6-1.8-2.9-4.6-2.9-6.9c-0.2-18.2-0.1-36.5-0.1-54.7c0-2.9,0.6-5.8,3.5-6.9 c1.9-0.7,4.9-0.7,6.2,0.4c1.7,1.5,2.9,4.4,3,6.7c0.2,16.6,0.2,33.2,0.1,49.9c0,2.4,0.7,4.2,2.4,5.9c4.6,4.4,9,9,13.6,13.4 c2.4,2.3,3.4,5,3.2,8.4c-1.9,36.1-3.7,72.1-5.5,108.2c-0.3,5.7,2.2,9.4,6.9,10.5c3.9,0.9,8.1-0.9,9.6-4.6c0.8-2.1,1-4.6,0.9-6.9 C151.6,271,150.6,253.1,149.8,235.3C149.7,235.3,149.7,235.3,149.8,235.3z"></path><path d="M319.4,195c0.1,30-11.9,60.6-36.3,86.4c-3.3,3.4-7,4-9.9,1.5c-3.1-2.6-3-6.5,0.5-10.2c11.7-12.3,20.8-26.2,26.3-42.3 c11.3-33.7,8.3-66.2-9.5-97c-3-5.3-6.9-10.1-10.4-15.1c-1.9-2.7-2.6-5.4-0.6-8.3c2.5-3.7,7.3-3.7,10.5,0.2 c7.6,9.3,14,19.4,18.8,30.5C315.4,156.2,319,172.5,319.4,195z"></path><path d="M64,188.7c0.2-24.3,8.3-49,23.9-71.3c2.4-3.5,6-4.2,9.1-2.2c3,2,3.8,5.8,1.5,9.3c-6.1,9-11.6,18.4-15,28.8 c-13.8,42.6-6.5,81.2,22.6,115.5c1.4,1.6,2.9,3.1,4.2,4.8c2.5,3.1,2.3,6.7-0.4,9.1c-2.8,2.5-6.5,2.4-9.3-0.9 c-5.1-5.9-10.4-11.8-14.8-18.3C71.2,241.7,64.1,217.8,64,188.7z"></path><path d="M192.1,63.3c9.5,1.4,18.9,2.6,28.4,4.1c4.5,0.7,6.7,3.8,6,7.5c-0.8,3.9-4,5.9-8.6,4.9c-19.1-4.1-38-3.9-56.9,1.3 c-3.1,0.9-6.1,2-9.2,2.9c-4.4,1.3-7.7-0.2-8.8-3.8c-1.2-3.7,0.5-6.7,4.8-8.3C162,66.6,176.8,64.1,192.1,63.3z"></path><path d="M127.9,127.9c0-8,0-16,0-24c0-4.9,2.3-7.7,6.2-7.8c3.9-0.1,6.6,2.9,6.6,7.9c0.1,16.1,0,32.2,0,48.3c0,3.4-1.1,6.2-4.6,7.3 c-4.3,1.3-8-1.7-8.1-6.7C127.8,144.6,127.9,136.2,127.9,127.9z"></path><path d="M159.6,127.9c0,8.5,0.1,17,0,25.5c-0.1,3.9-2.4,6.3-5.9,6.5c-3.6,0.2-6.2-2.1-6.7-6.1c-0.2-1.1-0.1-2.2-0.1-3.4 c0-12.1,0-24.2,0-36.3c0-3.1,0-6.2,0-9.4c0-1,0-2,0.2-3c0.7-3.5,3.2-5.8,6.4-5.7c3.4,0.1,6,2.6,6.1,6.3 C159.7,110.9,159.6,119.4,159.6,127.9C159.6,127.9,159.6,127.9,159.6,127.9z"></path><path d="M191.8,307.3c4.4-0.2,8.4-0.5,12.4-0.7c4.9-0.3,7.8,1.8,8.1,5.7c0.3,3.8-2.3,6.8-7.1,7c-9.1,0.3-18.2,0.3-27.3,0 c-4.8-0.2-7.2-3.3-6.8-7.2c0.4-3.7,3.3-5.6,8-5.4C183.5,306.8,187.9,307.1,191.8,307.3z"></path></svg>