
<svg xmlns="http://www.w3.org/2000/svg" fill='#EFC139' id="Layer_1" data-name="Layer 1" viewBox="0 0 300 300"><title>icons</title><path d="M112.44,278.05c-4.9-1.74-8.51-4.7-9.39-10.15a20.13,20.13,0,0,1-.17-3.11c0-9.62.06-19.24,0-28.85-.06-5.56,2-9.79,7.23-12.54-2.13-9.62-4.28-19.26-6.47-29.12-9.45,1.83-18.8,3.25-27.93,5.54a24.86,24.86,0,0,0-17.89,16.1c-4.52,12.31-8.42,24.85-12.58,37.3a3.44,3.44,0,0,0,0,.86c.73,0,1.43.13,2.13.13,8.82,0,17.64,0,26.45,0,1.67,0,2.34-.48,2.74-2.16,2.1-8.78,4.37-17.53,6.64-26.59l7.69,1.86c-2.21,8.9-4.39,17.64-6.65,26.74H94.78v8H34c.19-.73.33-1.4.55-2.05,4.93-14.8,9.78-29.63,14.84-44.39,4.76-13.91,14.61-22,29-24.63,12.91-2.39,25.8-4.84,38.71-7.22,1.3-.24,1.82-.81,1.65-2.08a1.29,1.29,0,0,1,0-.48c.66-4.8-.72-8.3-4.74-11.67-7.7-6.45-12.14-15.17-14.11-25.07a2.44,2.44,0,0,0-2.08-2.16A19.65,19.65,0,0,1,83.08,123c0-9.77-.1-19.55,0-29.33.38-29.56,23-55.93,52.14-60.86,34.52-5.85,66.34,15.69,73.56,49.94a71.12,71.12,0,0,1,1.25,13.12c.19,8.82.08,17.64.06,26.45,0,10-5.42,17.14-15.06,20.11a3,3,0,0,0-1.72,1.82,48.25,48.25,0,0,1-17.53,28.46,4.17,4.17,0,0,0-1.31,2.76c-.14,2.55-.91,5.86.35,7.45s4.67,1.41,7.16,1.89c11.7,2.24,23.46,4.24,35.12,6.72,12.42,2.63,21.42,10,25.77,21.88,5.8,15.85,10.82,32,16.17,48a3.29,3.29,0,0,1,0,.64H198.32v-7.76H209l-6.67-26.84,7.65-1.95,3.91,15.45c1,3.88,1.87,7.78,3,11.63a2.64,2.64,0,0,0,1.82,1.59c9.46.1,18.92.06,28.38.05a6,6,0,0,0,1.13-.27c-1.55-4.7-3.06-9.32-4.59-13.93-2.35-7.06-4.73-14.11-7.07-21.17-3.61-10.92-10.95-17.64-22.28-19.85-8.16-1.58-16.33-3.08-24.68-4.65-2.17,9.76-4.31,19.34-6.47,29.06,5.86,2.92,7.4,7.91,7.26,14-.2,8.57-.28,17.16,0,25.73.25,7.41-2.45,12.53-9.65,14.94ZM153.7,110.63c1.15-.23,2.32-.43,3.46-.71a46.18,46.18,0,0,0,20.68-11.65c5.69-5.31,13.36-3.29,16,4,.2.57.5,1.33,1,1.53,2.37,1.06,4.81,2,7.76,3.15-.34-6.77-.16-13.44-1.09-20a55.29,55.29,0,0,0-45.38-46.45A55.94,55.94,0,0,0,97.13,69.86c-6.07,11.63-6.62,24.06-6.07,36.73,0,.09.23.18.47.35,4.55-3.2,9.65-4.15,15.42-3.37v7.81c2.91-.35,5.54-.52,8.12-1a44.48,44.48,0,0,0,23-12.14,9.34,9.34,0,0,1,10.84-2,9.6,9.6,0,0,1,5.56,9.56A43.47,43.47,0,0,1,153.7,110.63Zm-46.86,8.91c0,2.29-.11,4.69,0,7.06.34,6.06,0,12.29,1.36,18.13,4.29,19,22.37,31.5,42.24,29.87,18.74-1.54,34.45-17.25,35.56-36.3.63-10.78.26-21.62.27-32.44,0-.76-.58-2.14-1-2.16a3.93,3.93,0,0,0-2.66.92c-8.06,7.54-17.46,12.43-28.43,13.92-4.52.61-9.13.59-14.2.89,2.19-4.4,4.06-8.11,5.9-11.83.65-1.32,1.38-2.94-.22-3.79-.67-.36-2.35.43-3.15,1.16a51.59,51.59,0,0,1-23.64,12.69C115.06,118.55,111.06,118.91,106.84,119.54Zm39.74,150.53a19.83,19.83,0,1,0-19.79-19.9A19.75,19.75,0,0,0,146.58,270.07Zm19.83-91.68c-13.32,5.76-26.38,5.73-39.4.13-.74,4-.19,7.12,3,10,5.15,4.55,9.81,9.66,14.68,14.52.6.6,1.24,1.16,1.94,1.81,6.46-6.46,12.75-12.73,19-19.05a3.16,3.16,0,0,0,.73-1.9C166.48,182.21,166.41,180.53,166.41,178.39ZM126.75,270c-10.74-13.42-10.61-26.46,0-39.61h-2c-3.29,0-6.57,0-9.85,0-2.46.05-4,1.42-4,3.83q-.09,16,0,31.92a3.47,3.47,0,0,0,3.53,3.79C118.44,270.13,122.43,270,126.75,270Zm39.44.06c4,0,7.51,0,11,0,3.89,0,5.1-1.27,5.11-5.23q0-13.32,0-26.64c0-7.58-.22-7.79-7.81-7.79h-8.32C176.77,241.94,177.22,257.87,166.19,270.09Zm-42.26-47.86h45.32l-1.93-7.63H125.87Zm52.13-5.68.44-.06c1.74-7.82,3.47-15.64,5.24-23.61-3.25-.62-6.21-1.22-9.19-1.74a1.66,1.66,0,0,0-1.27.39c-4.87,4.8-9.7,9.64-15,14.89h17.13C174.35,209.92,175.2,213.24,176.06,216.55Zm-64.63-23.64c1.81,8.1,3.55,15.88,5.3,23.66l.41-.07c.85-3.31,1.71-6.61,2.61-10.11h17.14c-5.23-5.21-10-10-14.84-14.73a2,2,0,0,0-1.46-.51C117.62,191.67,114.66,192.28,111.43,192.91ZM98.86,112.3c-4.58,1-8.15,6.19-7.88,11.28s3.9,9.83,7.88,10.29Zm95.46,21.84a11.66,11.66,0,0,0,7.8-12.14c-.59-4.91-4-9.13-7.8-9.56Z"></path><path d="M146.51,262.16a11.92,11.92,0,1,1,12-11.83A12,12,0,0,1,146.51,262.16Zm.17-8a3.92,3.92,0,1,0-4-3.89A3.83,3.83,0,0,0,146.68,254.15Z"></path></svg>